<?xml version="1.0" encoding="UTF-8"?>
<svg width="12px" height="783px" viewBox="0 0 12 783" version="1.1" xmlns="http://www.w3.org/2000/svg" xmlns:xlink="http://www.w3.org/1999/xlink">
    <!-- Generator: Sketch 51.2 (57519) - http://www.bohemiancoding.com/sketch -->
    <title>Line</title>
    <desc>Created with Sketch.</desc>
    <defs></defs>
    <g id="Desktop" stroke="none" stroke-width="1" fill="none" fill-rule="evenodd">
        <g id="home1" transform="translate(-1379.000000, -960.000000)" fill="#3E3EC1" fill-rule="nonzero">
            <path id="Line" d="M1380.93579,969.245131 L1385.43579,961.245131 L1384.56421,961.245131 L1389.06421,969.245131 L1389.30934,969.680918 L1390.18092,969.190657 L1389.93579,968.754869 L1385.43579,960.754869 L1385,959.980136 L1384.56421,960.754869 L1380.06421,968.754869 L1379.81908,969.190657 L1380.69066,969.680918 L1380.93579,969.245131 Z M1389.06421,1733.75487 L1384.56421,1741.75487 L1385.43579,1741.75487 L1380.93579,1733.75487 L1380.69066,1733.31908 L1379.81908,1733.80934 L1380.06421,1734.24513 L1384.56421,1742.24513 L1385,1743.01986 L1385.43579,1742.24513 L1389.93579,1734.24513 L1390.18092,1733.80934 L1389.30934,1733.31908 L1389.06421,1733.75487 Z M1384.5,962 L1384.5,969 L1384.5,1734 L1384.5,1741 L1384.5,1741.5 L1385.5,1741.5 L1385.5,1741 L1385.5,1734 L1385.5,969 L1385.5,962 L1385.5,961.5 L1384.5,961.5 L1384.5,962 Z"></path>
        </g>
    </g>
</svg>